<svg width="248" height="270" viewBox="0 0 248 270" fill="none" xmlns="http://www.w3.org/2000/svg">
<g clip-path="url(#clip0_95_287)">
<path d="M184.037 50.2875C183.21 50.2875 182.383 50.0625 181.66 49.6125C161.82 38.475 144.667 33.75 124.103 33.75C103.643 33.75 84.2167 39.0375 66.5467 49.6125C64.0667 51.075 60.9667 50.0625 59.52 47.3625C58.1767 44.6625 59.1067 41.175 61.5867 39.7125C80.8067 28.35 101.887 22.5 124.103 22.5C146.113 22.5 165.333 27.7875 186.413 39.6C188.997 41.0625 189.927 44.4375 188.583 47.1375C187.653 49.1625 185.897 50.2875 184.037 50.2875ZM36.1667 109.35C35.1333 109.35 34.1 109.013 33.17 108.338C30.7933 106.537 30.2767 103.05 31.93 100.463C42.16 84.7125 55.18 72.3375 70.68 63.675C103.127 45.45 144.667 45.3375 177.217 63.5625C192.717 72.225 205.737 84.4875 215.967 100.125C217.62 102.6 217.103 106.2 214.727 108C212.35 109.8 209.147 109.237 207.493 106.65C198.193 92.475 186.413 81.3375 172.463 73.575C142.807 57.0375 104.883 57.0375 75.33 73.6875C61.2767 81.5625 49.4967 92.8125 40.1967 106.988C39.37 108.562 37.82 109.35 36.1667 109.35ZM100.75 245.138C99.4067 245.138 98.0633 244.575 97.1333 243.45C88.1433 233.662 83.2867 227.363 76.3633 213.75C69.2333 199.913 65.5133 183.037 65.5133 164.925C65.5133 131.512 91.76 104.288 124 104.288C156.24 104.288 182.487 131.512 182.487 164.925C182.487 168.075 180.213 170.55 177.32 170.55C174.427 170.55 172.153 168.075 172.153 164.925C172.153 137.7 150.557 115.538 124 115.538C97.4433 115.538 75.8467 137.7 75.8467 164.925C75.8467 181.125 79.1533 196.088 85.4567 208.238C92.07 221.175 96.6167 226.688 104.573 235.463C106.537 237.713 106.537 241.2 104.573 243.45C103.437 244.575 102.093 245.138 100.75 245.138ZM174.84 224.325C162.543 224.325 151.693 220.95 142.807 214.312C127.41 202.95 118.213 184.5 118.213 164.925C118.213 161.775 120.487 159.3 123.38 159.3C126.273 159.3 128.547 161.775 128.547 164.925C128.547 180.787 135.987 195.75 148.593 204.975C155.93 210.375 164.507 212.963 174.84 212.963C177.32 212.963 181.453 212.625 185.587 211.837C188.377 211.275 191.063 213.3 191.58 216.45C192.097 219.488 190.237 222.412 187.343 222.975C181.453 224.212 176.287 224.325 174.84 224.325ZM154.07 247.5C153.657 247.5 153.14 247.387 152.727 247.275C136.297 242.325 125.55 235.687 114.287 223.65C99.82 208.012 91.8633 187.2 91.8633 164.925C91.8633 146.7 106.123 131.85 123.69 131.85C141.257 131.85 155.517 146.7 155.517 164.925C155.517 176.962 165.127 186.75 177.01 186.75C188.893 186.75 198.503 176.962 198.503 164.925C198.503 122.512 164.92 88.0875 123.587 88.0875C94.24 88.0875 67.3733 105.862 55.2833 133.425C51.2533 142.537 49.1867 153.225 49.1867 164.925C49.1867 173.7 49.91 187.538 56.11 205.538C57.1433 208.463 55.8 211.725 53.1133 212.738C50.4267 213.863 47.43 212.288 46.5 209.475C41.4367 194.738 38.9567 180.113 38.9567 164.925C38.9567 151.425 41.3333 139.162 45.9833 128.475C59.7267 97.0875 90.21 76.725 123.587 76.725C170.603 76.725 208.837 116.212 208.837 164.812C208.837 183.037 194.577 197.887 177.01 197.887C159.443 197.887 145.183 183.037 145.183 164.812C145.183 152.775 135.573 142.988 123.69 142.988C111.807 142.988 102.197 152.775 102.197 164.812C102.197 184.05 109.017 202.05 121.52 215.55C131.337 226.125 140.74 231.975 155.31 236.363C158.1 237.15 159.65 240.3 158.927 243.225C158.41 245.813 156.24 247.5 154.07 247.5Z" fill="white"/>
</g>
<defs>
<clipPath id="clip0_95_287">
<rect width="248" height="270" fill="white"/>
</clipPath>
</defs>
</svg>
