<svg width="83" height="81" viewBox="0 0 83 81" fill="none" xmlns="http://www.w3.org/2000/svg">
<g clip-path="url(#clip0_24_2786)">
<path d="M34.5834 64.125V47.25H48.4167V64.125C48.4167 65.9812 49.9729 67.5 51.875 67.5H62.25C64.1521 67.5 65.7084 65.9812 65.7084 64.125V40.5H71.5875C73.1784 40.5 73.9392 38.5763 72.7288 37.5637L43.8171 12.15C42.503 11.0025 40.4971 11.0025 39.183 12.15L10.2713 37.5637C9.09545 38.5763 9.8217 40.5 11.4125 40.5H17.2917V64.125C17.2917 65.9812 18.8479 67.5 20.75 67.5H31.125C33.0271 67.5 34.5834 65.9812 34.5834 64.125Z" fill="white"/>
</g>
<defs>
<clipPath id="clip0_24_2786">
<rect width="83" height="81" fill="white"/>
</clipPath>
</defs>
</svg>
