<svg width="343" height="321" viewBox="0 0 343 321" fill="none" xmlns="http://www.w3.org/2000/svg">
<g clip-path="url(#clip0_95_290)">
<path d="M171.357 26.75C92.4671 26.75 28.5834 86.67 28.5834 160.5C28.5834 234.33 92.4671 294.25 171.357 294.25C250.39 294.25 314.417 234.33 314.417 160.5C314.417 86.67 250.39 26.75 171.357 26.75ZM171.5 267.5C108.331 267.5 57.1667 219.618 57.1667 160.5C57.1667 101.382 108.331 53.5 171.5 53.5C234.669 53.5 285.833 101.382 285.833 160.5C285.833 219.618 234.669 267.5 171.5 267.5ZM221.521 147.125C233.383 147.125 242.958 138.164 242.958 127.062C242.958 115.961 233.383 107 221.521 107C209.659 107 200.083 115.961 200.083 127.062C200.083 138.164 209.659 147.125 221.521 147.125ZM121.479 147.125C133.341 147.125 142.917 138.164 142.917 127.062C142.917 115.961 133.341 107 121.479 107C109.617 107 100.042 115.961 100.042 127.062C100.042 138.164 109.617 147.125 121.479 147.125ZM171.5 234.062C200.512 234.062 225.808 219.216 239.385 197.281C242.101 192.867 238.671 187.25 233.097 187.25H109.903C104.472 187.25 100.899 192.867 103.615 197.281C117.192 219.216 142.488 234.062 171.5 234.062Z" fill="white"/>
</g>
<defs>
<clipPath id="clip0_95_290">
<rect width="343" height="321" fill="white"/>
</clipPath>
</defs>
</svg>
