<svg width="56" height="69" viewBox="0 0 56 69" fill="none" xmlns="http://www.w3.org/2000/svg">
<g clip-path="url(#clip0_95_281)">
<path d="M9.33333 43.125H46.6667C47.95 43.125 49 41.8312 49 40.25C49 38.6688 47.95 37.375 46.6667 37.375H9.33333C8.05 37.375 7 38.6688 7 40.25C7 41.8312 8.05 43.125 9.33333 43.125ZM9.33333 54.625H46.6667C47.95 54.625 49 53.3312 49 51.75C49 50.1688 47.95 48.875 46.6667 48.875H9.33333C8.05 48.875 7 50.1688 7 51.75C7 53.3312 8.05 54.625 9.33333 54.625ZM9.33333 31.625H46.6667C47.95 31.625 49 30.3313 49 28.75C49 27.1687 47.95 25.875 46.6667 25.875H9.33333C8.05 25.875 7 27.1687 7 28.75C7 30.3313 8.05 31.625 9.33333 31.625ZM7 17.25C7 18.8313 8.05 20.125 9.33333 20.125H46.6667C47.95 20.125 49 18.8313 49 17.25C49 15.6687 47.95 14.375 46.6667 14.375H9.33333C8.05 14.375 7 15.6687 7 17.25Z" fill="#1F6E8C"/>
</g>
<defs>
<clipPath id="clip0_95_281">
<rect width="56" height="69" fill="white"/>
</clipPath>
</defs>
</svg>
